<svg width="22" height="28" viewBox="0 0 22 28" fill="none" xmlns="http://www.w3.org/2000/svg">
<path fill-rule="evenodd" clip-rule="evenodd" d="M10.5474 27.6498L11 27.0191L10.5474 27.6498ZM11.4526 27.6498L11.4557 27.6483L11.4636 27.6429L11.4871 27.6251L11.5799 27.5595C11.6584 27.5024 11.7731 27.419 11.9177 27.3094C12.2069 27.0917 12.617 26.7713 13.1065 26.3599C14.3915 25.2808 15.593 24.1093 16.7011 22.8551C19.3003 19.9015 22 15.6858 22 10.8663C22 7.98685 20.8419 5.22318 18.7801 3.18517C17.7611 2.1765 16.5491 1.3758 15.2138 0.829159C13.8786 0.282517 12.4465 0.000724372 11 0C9.55354 0.000623249 8.12149 0.282294 6.78625 0.828803C5.45102 1.37531 4.23897 2.17587 3.21986 3.1844C1.15612 5.22707 -0.00138523 7.98892 1.24411e-06 10.8671C1.24411e-06 15.6858 2.69971 19.9015 5.29886 22.8551C6.40701 24.1093 7.60853 25.2808 8.8935 26.3599C9.38379 26.7713 9.79314 27.0917 10.0823 27.3094C10.2241 27.4168 10.3674 27.5223 10.5121 27.6259L10.5372 27.6429L10.5443 27.6483L10.5474 27.6498C10.8185 27.8374 11.1815 27.8374 11.4526 27.6498ZM11 27.0191L11.4526 27.6498L11 27.0191ZM14.9286 10.8077C14.9286 11.8314 14.5147 12.8131 13.7779 13.537C13.0412 14.2609 12.0419 14.6675 11 14.6675C9.95808 14.6675 8.95883 14.2609 8.22208 13.537C7.48533 12.8131 7.07143 11.8314 7.07143 10.8077C7.07143 9.78395 7.48533 8.80217 8.22208 8.07831C8.95883 7.35444 9.95808 6.94778 11 6.94778C12.0419 6.94778 13.0412 7.35444 13.7779 8.07831C14.5147 8.80217 14.9286 9.78395 14.9286 10.8077Z" fill="white"/>
</svg>
