<svg width="26" height="25" viewBox="0 0 26 25" fill="none" xmlns="http://www.w3.org/2000/svg">
<path d="M25.5224 19.5831L19.5896 14.3964C19.3091 14.1513 18.9406 14.0206 18.5618 14.0319C18.183 14.0431 17.8236 14.1955 17.5594 14.4567L14.0669 17.9103C13.2262 17.756 11.5362 17.2494 9.79645 15.5808C8.05675 13.9066 7.52988 12.2774 7.37371 11.4746L10.9626 8.11506C11.2346 7.86124 11.3933 7.51559 11.405 7.15126C11.4167 6.78693 11.2806 6.43252 11.0253 6.16302L5.63255 0.459862C5.3772 0.189519 5.02231 0.0255356 4.64325 0.00273902C4.26418 -0.0200576 3.8908 0.100129 3.60241 0.337772L0.435337 2.94938C0.183009 3.19288 0.0324027 3.51696 0.0120874 3.86015C-0.00980485 4.21098 -0.427216 12.5215 6.27472 18.9685C12.1214 24.5888 19.4451 25 21.4621 25C21.7569 25 21.9379 24.9916 21.986 24.9888C22.3429 24.9696 22.6798 24.8241 22.9318 24.5804L25.6464 21.5338C25.8945 21.2574 26.0205 20.8986 25.9973 20.5342C25.9741 20.1697 25.8037 19.8284 25.5224 19.5831Z" fill="white"/>
</svg>
