<svg width="31" height="18" viewBox="0 0 31 18" fill="none" xmlns="http://www.w3.org/2000/svg">
<path fill-rule="evenodd" clip-rule="evenodd" d="M26.8259 12.3782C26.8259 12.3782 29.1754 14.6986 29.7565 15.7723C29.7678 15.7878 29.7767 15.8049 29.7827 15.8231C30.0195 16.2198 30.0776 16.5307 29.9614 16.7603C29.7652 17.1395 29.1013 17.3298 28.876 17.3458H24.7235C24.4344 17.3458 23.8329 17.2703 23.1006 16.7647C22.5412 16.3738 21.9848 15.7302 21.4457 15.101C20.6408 14.1668 19.9448 13.3561 19.2401 13.3561C19.1511 13.3559 19.0627 13.3706 18.9786 13.3996C18.4454 13.5682 17.7683 14.3281 17.7683 16.352C17.7683 16.9855 17.2685 17.3458 16.9183 17.3458H15.0164C14.3684 17.3458 10.9947 17.1192 8.0031 13.9648C4.33734 10.1029 1.04497 2.35584 1.01301 2.28756C0.808143 1.78629 1.23821 1.51314 1.70315 1.51314H5.89634C6.45863 1.51314 6.6417 1.85313 6.76956 2.15824C6.91776 2.5084 7.46697 3.90904 8.36779 5.48257C9.82654 8.04265 10.723 9.08441 11.4393 9.08441C11.5739 9.08481 11.7062 9.04973 11.8229 8.98271C12.7586 8.46837 12.5842 5.1266 12.5406 4.43791C12.5406 4.30424 12.5392 2.94574 12.0597 2.28901C11.7168 1.81826 11.1327 1.63519 10.7797 1.56835C10.8741 1.43177 11.0746 1.22255 11.3318 1.09905C11.9725 0.779404 13.1305 0.73291 14.2798 0.73291H14.9176C16.1643 0.750345 16.4868 0.830257 16.9401 0.945039C17.8526 1.16298 17.87 1.75433 17.7901 3.7681C17.7669 4.34347 17.7422 4.99148 17.7422 5.75427C17.7422 5.917 17.7349 6.09862 17.7349 6.28314C17.7073 7.31618 17.671 8.47999 18.4003 8.95801C18.4949 9.01694 18.6042 9.04815 18.7156 9.04809C18.9684 9.04809 19.7254 9.04809 21.7784 5.52471C22.6793 3.96861 23.3767 2.13354 23.4246 1.99552C23.4653 1.91851 23.5873 1.70202 23.7355 1.61484C23.841 1.55875 23.9591 1.53073 24.0784 1.53348H29.0112C29.5488 1.53348 29.9134 1.61485 29.9846 1.81826C30.1038 2.14807 29.9614 3.15496 27.7093 6.20032C27.3301 6.7074 26.9974 7.14619 26.7054 7.52977C24.664 10.209 24.664 10.3441 26.8259 12.3782Z" fill="white"/>
</svg>
