<svg width="39" height="39" viewBox="0 0 39 39" fill="none" xmlns="http://www.w3.org/2000/svg">
<path d="M8.53125 0C8.85448 0 9.16448 0.128404 9.39304 0.356964C9.6216 0.585524 9.75 0.895517 9.75 1.21875V2.4375H29.25V1.21875C29.25 0.895517 29.3784 0.585524 29.607 0.356964C29.8355 0.128404 30.1455 0 30.4688 0C30.792 0 31.102 0.128404 31.3305 0.356964C31.5591 0.585524 31.6875 0.895517 31.6875 1.21875V2.4375H34.125C35.4179 2.4375 36.6579 2.95111 37.5721 3.86535C38.4864 4.77959 39 6.01957 39 7.3125V34.125C39 35.4179 38.4864 36.6579 37.5721 37.5721C36.6579 38.4864 35.4179 39 34.125 39H4.875C3.58207 39 2.34209 38.4864 1.42785 37.5721C0.513615 36.6579 0 35.4179 0 34.125V7.3125C0 6.01957 0.513615 4.77959 1.42785 3.86535C2.34209 2.95111 3.58207 2.4375 4.875 2.4375H7.3125V1.21875C7.3125 0.895517 7.4409 0.585524 7.66946 0.356964C7.89802 0.128404 8.20802 0 8.53125 0V0ZM2.4375 9.75V34.125C2.4375 34.7715 2.69431 35.3915 3.15143 35.8486C3.60855 36.3057 4.22853 36.5625 4.875 36.5625H34.125C34.7715 36.5625 35.3915 36.3057 35.8486 35.8486C36.3057 35.3915 36.5625 34.7715 36.5625 34.125V9.75H2.4375Z" fill="#BDBDBD"/>
</svg>
