<svg width="30" height="30" viewBox="0 0 30 30" fill="none" xmlns="http://www.w3.org/2000/svg">
<path d="M15 10.0531C12.2762 10.0531 10.0534 12.2759 10.0534 14.9997C10.0534 17.7236 12.2762 19.9464 15 19.9464C17.7239 19.9464 19.9467 17.7236 19.9467 14.9997C19.9467 12.2759 17.7239 10.0531 15 10.0531ZM29.8364 14.9997C29.8364 12.9513 29.8549 10.9214 29.7399 8.87669C29.6248 6.50169 29.0831 4.39387 27.3463 2.65716C25.6059 0.916728 23.5018 0.378643 21.1268 0.263604C19.0784 0.148565 17.0485 0.167119 15.0038 0.167119C12.9553 0.167119 10.9254 0.148565 8.88071 0.263604C6.50572 0.378643 4.3979 0.920439 2.66119 2.65716C0.920757 4.39759 0.382671 6.50169 0.267632 8.87669C0.152593 10.9251 0.171148 12.955 0.171148 14.9997C0.171148 17.0445 0.152593 19.078 0.267632 21.1228C0.382671 23.4978 0.924468 25.6056 2.66119 27.3423C4.40161 29.0827 6.50572 29.6208 8.88071 29.7359C10.9292 29.8509 12.959 29.8323 15.0038 29.8323C17.0522 29.8323 19.0821 29.8509 21.1268 29.7359C23.5018 29.6208 25.6096 29.079 27.3463 27.3423C29.0868 25.6019 29.6248 23.4978 29.7399 21.1228C29.8586 19.078 29.8364 17.0482 29.8364 14.9997ZM15 22.6109C10.7881 22.6109 7.38892 19.2116 7.38892 14.9997C7.38892 10.7878 10.7881 7.3886 15 7.3886C19.212 7.3886 22.6112 10.7878 22.6112 14.9997C22.6112 19.2116 19.212 22.6109 15 22.6109ZM22.9229 8.85442C21.9395 8.85442 21.1454 8.06028 21.1454 7.07688C21.1454 6.09348 21.9395 5.29934 22.9229 5.29934C23.9063 5.29934 24.7004 6.09348 24.7004 7.07688C24.7007 7.31039 24.655 7.54167 24.5657 7.75746C24.4765 7.97326 24.3456 8.16933 24.1805 8.33444C24.0153 8.49956 23.8193 8.63048 23.6035 8.71971C23.3877 8.80894 23.1564 8.85471 22.9229 8.85442Z" fill="white"/>
</svg>
