<svg width="29" height="22" viewBox="0 0 29 22" fill="none" xmlns="http://www.w3.org/2000/svg">
<path d="M27.0938 0H1.90625C1.37041 0 0.9375 0.43291 0.9375 0.96875V20.3438C0.9375 20.8796 1.37041 21.3125 1.90625 21.3125H27.0938C27.6296 21.3125 28.0625 20.8796 28.0625 20.3438V0.96875C28.0625 0.43291 27.6296 0 27.0938 0ZM24.6477 3.29678L15.0964 10.7289C14.8603 10.9136 14.5303 10.9136 14.2941 10.7289L4.73984 3.29678C4.70383 3.26898 4.67741 3.23061 4.6643 3.18705C4.65118 3.14349 4.65203 3.09691 4.66671 3.05385C4.6814 3.01079 4.70919 2.97341 4.74619 2.94694C4.7832 2.92047 4.82755 2.90624 4.87305 2.90625H24.5145C24.5599 2.90624 24.6043 2.92047 24.6413 2.94694C24.6783 2.97341 24.7061 3.01079 24.7208 3.05385C24.7355 3.09691 24.7363 3.14349 24.7232 3.18705C24.7101 3.23061 24.6837 3.26898 24.6477 3.29678Z" fill="white"/>
</svg>
